<svg width="108" height="62" viewBox="0 0 108 62" fill="none" xmlns="http://www.w3.org/2000/svg">
<g id="Group 26">
<g id="Group 7">
<circle id="Ellipse 2" r="31" transform="matrix(0.866025 -0.5 0.866025 0.5 53.6936 31)" fill="#B1ADFB"/>
<path id="P" d="M56.6242 42.308L34.8004 29.708L43.7793 24.524C45.7123 23.408 47.6764 22.634 49.6718 22.202C51.6879 21.758 53.652 21.656 55.5642 21.896C57.4764 22.136 59.2327 22.718 60.8331 23.642C62.4335 24.566 63.4416 25.58 63.8573 26.684C64.2729 27.788 64.0963 28.922 63.3272 30.086C62.579 31.238 61.2384 32.372 59.3054 33.488L52.5712 37.376L52.4777 35.234L60.6772 39.968L56.6242 42.308ZM52.9142 35.486L49.1418 35.396L55.6889 31.616C57.4764 30.584 58.4429 29.594 58.5884 28.646C58.7338 27.674 58.1207 26.792 56.7489 26C55.3563 25.196 53.8287 24.842 52.1659 24.938C50.5239 25.022 48.8092 25.58 47.0217 26.612L40.4746 30.392L40.2875 28.196L52.9142 35.486Z" fill="#FFFFFD"/>
</g>
</g>
</svg>
