<svg width="28" height="23" viewBox="0 0 28 23" fill="none" xmlns="http://www.w3.org/2000/svg">
<circle r="8.2862" transform="matrix(0.836113 -0.548557 0.836113 0.548557 13.8564 13.0909)" fill="#7871EE"/>
<path d="M14.2257 16.3791L7.7876 12.1552L10.4364 10.4174C11.0066 10.0433 11.5861 9.78378 12.1747 9.63897C12.7694 9.49012 13.3489 9.45593 13.913 9.53639C14.4771 9.61684 14.9952 9.81194 15.4673 10.1217C15.9394 10.4314 16.2368 10.7714 16.3594 11.1415C16.4821 11.5116 16.4299 11.8917 16.2031 12.2819C15.9823 12.6681 15.5869 13.0482 15.0166 13.4224L13.03 14.7257L13.0024 14.0077L15.4213 15.5946L14.2257 16.3791ZM13.1312 14.0922L12.0183 14.062L13.9498 12.7948C14.4771 12.4489 14.7622 12.117 14.8051 11.7992C14.848 11.4733 14.6671 11.1777 14.2625 10.9122C13.8517 10.6426 13.401 10.524 12.9105 10.5562C12.4261 10.5843 11.9202 10.7714 11.3929 11.1173L9.4615 12.3845L9.40632 11.6483L13.1312 14.0922Z" fill="#FFFFFD"/>
<circle r="8.2862" transform="matrix(0.836113 -0.548557 0.836113 0.548557 13.8564 11.0909)" fill="#B1ADFB"/>
<path d="M16.3134 13.5391C15.8107 13.869 15.2588 14.1385 14.6579 14.3477C14.0509 14.5528 13.4991 14.6695 13.0024 14.6977L12.4874 13.8167C12.9473 13.7805 13.4347 13.6819 13.9498 13.521C14.4648 13.3601 14.9216 13.1489 15.3201 12.8874C15.6574 12.6662 15.8934 12.463 16.0283 12.278C16.1632 12.0929 16.2184 11.928 16.1939 11.7832C16.1632 11.6343 16.0682 11.5076 15.9088 11.403C15.7126 11.2743 15.4857 11.218 15.2282 11.2341C14.9645 11.2461 14.6855 11.3045 14.3912 11.4091C14.0969 11.5056 13.7811 11.6243 13.4439 11.7651C13.1128 11.9018 12.7694 12.0346 12.4138 12.1633C12.0582 12.284 11.7026 12.3765 11.3469 12.4409C10.9913 12.4972 10.6326 12.4992 10.2709 12.4469C9.9091 12.3946 9.55654 12.2559 9.21317 12.0306C8.86368 11.8013 8.63681 11.5318 8.53258 11.222C8.42834 10.9042 8.48046 10.5643 8.68893 10.2022C8.8974 9.83214 9.29595 9.45401 9.88457 9.06782C10.2709 8.81439 10.7031 8.59515 11.1814 8.4101C11.6596 8.22505 12.1318 8.10035 12.5978 8.03599L13.1496 8.89283C12.6897 8.96926 12.2667 9.0819 11.8804 9.23074C11.488 9.37556 11.1507 9.54049 10.8687 9.72554C10.5376 9.94277 10.3076 10.1459 10.1789 10.335C10.0563 10.52 10.0103 10.687 10.0409 10.8358C10.0777 10.9806 10.1789 11.1074 10.3444 11.216C10.5406 11.3447 10.7675 11.405 11.025 11.397C11.2826 11.3809 11.5554 11.3226 11.8436 11.222C12.1379 11.1174 12.4567 10.9967 12.8001 10.86C13.1373 10.7192 13.4807 10.5864 13.8302 10.4617C14.1858 10.333 14.5384 10.2384 14.8879 10.1781C15.2435 10.1137 15.5991 10.1097 15.9548 10.166C16.3165 10.2183 16.666 10.3551 17.0032 10.5764C17.3466 10.8016 17.5704 11.0732 17.6746 11.391C17.7789 11.7007 17.7268 12.0406 17.5183 12.4107C17.3037 12.7768 16.9021 13.1529 16.3134 13.5391Z" fill="#FFFFFD"/>
<circle r="8.2862" transform="matrix(0.836113 -0.548557 0.836113 0.548557 13.8564 9.09091)" fill="#9690F3"/>
<path d="M13.3151 13.2037L9.77421 7.07909L10.9515 6.30672L20.2959 8.62383L19.045 9.44447L10.7491 7.27218L11.2274 6.95841L14.5476 12.3952L13.3151 13.2037ZM13.1588 11.3513L12.5426 10.5246L16.0191 8.24368L17.2792 8.64796L13.1588 11.3513Z" fill="#FFFFFD"/>
</svg>
