<svg width="30" height="45" viewBox="0 0 30 45" fill="none" xmlns="http://www.w3.org/2000/svg">
<path d="M16.1875 24.1406C15.5938 23.5156 15.1094 22.75 14.7344 21.8438C14.3906 20.9062 14.125 19.9844 13.9375 19.0781C13.7188 18.0469 13.5625 16.9531 13.4688 15.7969C13.3125 13.5469 13.5625 11.5 14.2188 9.65625C14.875 7.8125 15.7656 6.23438 16.8906 4.92188C18.0156 3.60938 19.2656 2.59375 20.6406 1.875C22.0469 1.15625 23.4062 0.796875 24.7188 0.796875C25.3125 0.796875 25.7812 0.9375 26.125 1.21875C26.5 1.5 26.7812 1.84375 26.9688 2.25C27.1562 2.65625 27.2656 3.07812 27.2969 3.51562C27.3594 3.95313 27.3906 4.3125 27.3906 4.59375C27.3906 5.59375 27.3594 6.57813 27.2969 7.54688C27.2656 8.51562 27.1875 9.54688 27.0625 10.6406C26.9688 11.7344 26.8125 12.9062 26.5938 14.1562C26.375 15.4062 26.0938 16.7969 25.75 18.3281C25.5625 19.1719 25.2969 20.25 24.9531 21.5625C24.6094 22.875 24.2031 24.3281 23.7344 25.9219C25.1406 25.9531 26.2656 26.0156 27.1094 26.1094C27.9844 26.1719 28.5469 26.2188 28.7969 26.25C29.0156 26.2812 29.1719 26.3906 29.2656 26.5781C29.3906 26.7656 29.3281 27.0625 29.0781 27.4688C28.8281 27.8438 28.4688 28.0625 28 28.125C27.5625 28.1875 27.125 28.2188 26.6875 28.2188C26.4375 28.2188 25.9688 28.2188 25.2812 28.2188C24.625 28.2188 23.8438 28.25 22.9375 28.3125C22.2812 30.25 21.5312 32.2031 20.6875 34.1719C19.875 36.1094 18.9688 37.8594 17.9688 39.4219C16.9688 41.0156 15.875 42.2969 14.6875 43.2656C13.5 44.2656 12.2344 44.7656 10.8906 44.7656C8.95312 44.7656 7.3125 44.3906 5.96875 43.6406C4.65625 42.9219 3.59375 42.0625 2.78125 41.0625C1.9375 40.0938 1.32812 39.1094 0.953125 38.1094C0.578125 37.1406 0.390625 36.3906 0.390625 35.8594C0.390625 34.9219 0.640625 33.9688 1.14062 33C1.64062 32.0312 2.4375 31.125 3.53125 30.2812C4.59375 29.4062 5.98438 28.6406 7.70312 27.9844C9.42188 27.3281 11.4844 26.8281 13.8906 26.4844C14.8906 26.3594 15.8438 26.2656 16.75 26.2031C17.6562 26.1094 18.5156 26.0312 19.3281 25.9688C19.9531 23.625 20.5781 21.2344 21.2031 18.7969C21.8594 16.3594 22.4219 14.1094 22.8906 12.0469C23.0781 11.2031 23.2656 10.2969 23.4531 9.32812C23.6406 8.32812 23.7812 7.39062 23.875 6.51562C24 5.64063 24.0625 4.90625 24.0625 4.3125C24.0938 3.71875 24.0312 3.39063 23.875 3.32812C23.7812 3.29688 23.5469 3.42188 23.1719 3.70312C22.7969 3.95313 22.3594 4.32813 21.8594 4.82812C21.3594 5.32812 20.8594 5.9375 20.3594 6.65625C19.8906 7.34375 19.5 8.09375 19.1875 8.90625C18.625 10.5 18.1875 12.0625 17.875 13.5938C17.625 14.9062 17.4688 16.2969 17.4062 17.7656C17.3438 19.2344 17.5781 20.5625 18.1094 21.75C18.0469 22.1875 17.9531 22.5469 17.8281 22.8281C17.7344 22.9844 17.6562 23.125 17.5938 23.25C17.5 23.3438 17.3906 23.4531 17.2656 23.5781C17.1406 23.6719 16.9844 23.7812 16.7969 23.9062C16.6406 24 16.4375 24.0781 16.1875 24.1406ZM15.625 37.2188C15.9688 36.5 16.3906 35.3906 16.8906 33.8906C17.3906 32.3906 17.9219 30.6562 18.4844 28.6875C16.9531 28.875 15.4062 29.1406 13.8438 29.4844C12.2812 29.7969 10.8594 30.2344 9.57812 30.7969C8.32812 31.3281 7.29688 31.9844 6.48438 32.7656C5.70312 33.5469 5.3125 34.4688 5.3125 35.5312C5.3125 36.6562 5.53125 37.6406 5.96875 38.4844C6.4375 39.3281 6.98438 40.0312 7.60938 40.5938C8.26562 41.1562 8.92188 41.5781 9.57812 41.8594C10.2656 42.1719 10.8438 42.3281 11.3125 42.3281C11.7812 42.3281 12.2188 42.1406 12.625 41.7656C13.0625 41.4219 13.4531 40.9844 13.7969 40.4531C14.1719 39.9531 14.5 39.4062 14.7812 38.8125C15.0938 38.2188 15.375 37.6875 15.625 37.2188Z" fill="#9590F3"/>
</svg>
